# xmcd
#
# Track frame offsets: 
#        150
#        26748
#        49893
#        66732
#        87038
#        110581
#        135194
#        158030
#        179643
#        207489
#
# Disc length: 3054 seconds
#
# Revision: 1
# Processed by: cddbd v1.5.2PL0 Copyright (c) Steve Scherf et al.
# Submitted via: ExactAudioCopyFreeDBPlugin 1.0
#
DISCID=8f0bec0a
DTITLE=赵雷 - 吉姆餐厅
DYEAR=2014
DGENRE=Country
TTITLE0=吉姆餐厅
TTITLE1=少年锦时
TTITLE2=梦中的哈德森
TTITLE3=我们的时光
TTITLE4=理想
TTITLE5=三十岁的女人
TTITLE6=家乡
TTITLE7=浮游
TTITLE8=小屋
TTITLE9=北京的冬天
EXTD=
EXTT0=
EXTT1=
EXTT2=
EXTT3=
EXTT4=
EXTT5=
EXTT6=
EXTT7=
EXTT8=
EXTT9=
PLAYORDER=
